<svg width="340" height="297" viewBox="0 0 340 297" fill="none" xmlns="http://www.w3.org/2000/svg">
<rect width="340" height="297" rx="20" fill="#E2FF54"/>
<rect x="0.5" y="0.5" width="362" height="296" rx="19.5" stroke="black" stroke-opacity="0.06"/>
<path d="M39.388 99V81.72H31.864V78.12H33.376C35.824 78.12 39.856 77.472 40.612 73.656H44.572V99H39.388ZM74.056 86.508C74.056 94.032 70.384 99.576 61.888 99.576C54.256 99.576 50.584 94.032 50.584 86.508C50.584 79.056 54.256 73.512 62.752 73.512C70.384 73.512 74.056 79.056 74.056 86.508ZM68.872 86.508C68.872 81.72 67.072 77.328 62.32 77.328C57.568 77.328 55.768 81.72 55.768 86.508C55.768 91.368 57.568 95.76 62.32 95.76C67.072 95.76 68.872 91.368 68.872 86.508ZM100.704 86.508C100.704 94.032 97.0324 99.576 88.5364 99.576C80.9044 99.576 77.2324 94.032 77.2324 86.508C77.2324 79.056 80.9044 73.512 89.4004 73.512C97.0324 73.512 100.704 79.056 100.704 86.508ZM95.5204 86.508C95.5204 81.72 93.7204 77.328 88.9684 77.328C84.2164 77.328 82.4164 81.72 82.4164 86.508C82.4164 91.368 84.2164 95.76 88.9684 95.76C93.7204 95.76 95.5204 91.368 95.5204 86.508ZM107.769 80.496C107.769 82.368 108.453 84.744 111.009 84.744C113.565 84.744 114.249 82.368 114.249 80.496C114.249 78.624 113.565 76.248 111.009 76.248C108.453 76.248 107.769 78.624 107.769 80.496ZM111.441 99.576L126.453 73.512H129.837L114.825 99.576H111.441ZM127.029 92.592C127.029 94.464 127.713 96.84 130.269 96.84C132.825 96.84 133.509 94.464 133.509 92.592C133.509 90.72 132.825 88.344 130.269 88.344C127.713 88.344 127.029 90.72 127.029 92.592ZM104.169 80.496C104.169 76.428 106.077 73.512 111.009 73.512C115.941 73.512 117.849 76.428 117.849 80.496C117.849 84.564 115.941 87.48 111.009 87.48C106.077 87.48 104.169 84.564 104.169 80.496ZM123.429 92.592C123.429 88.524 125.337 85.608 130.269 85.608C135.201 85.608 137.109 88.524 137.109 92.592C137.109 96.66 135.201 99.576 130.269 99.576C125.337 99.576 123.429 96.66 123.429 92.592ZM38.136 117.736V133.416H44.888C48.344 133.416 52.024 132.296 52.024 125.608C52.024 118.184 47.32 117.736 44.632 117.736H38.136ZM33.336 137V114.152H45.656C54.616 114.152 56.824 119.272 56.824 125.8C56.824 130.728 54.584 137 46.808 137H33.336ZM80.106 129.64H64.106C64.202 131.528 65.482 134.44 69.866 134.44C72.778 134.44 74.058 133.416 74.922 132.008H79.722C78.762 133.896 76.458 137.64 69.994 137.64C62.346 137.64 59.498 133.192 59.498 128.68C59.498 123.016 63.69 119.4 69.706 119.4C77.226 119.4 80.106 124.04 80.106 129V129.64ZM64.106 126.824H75.498C74.954 123.432 71.946 122.408 69.77 122.408C67.722 122.408 64.842 123.368 64.106 126.824ZM87.0078 128.584C87.0078 131.464 88.5758 134.248 92.7358 134.248C96.8638 134.248 98.4318 131.464 98.4318 128.584C98.4318 125.768 96.8638 122.984 92.7358 122.984C88.5758 122.984 87.0078 125.768 87.0078 128.584ZM102.656 113.768V137H98.2397V134.664H98.1758C97.8558 135.688 95.1998 137.64 91.6798 137.64C85.2158 137.64 82.3997 132.936 82.3997 128.584C82.3997 124.296 85.2158 119.592 91.6798 119.592C94.3358 119.592 96.8638 120.424 98.1758 122.472H98.2397V113.768H102.656ZM106.358 137V120.04H110.774V137H106.358ZM106.358 117.352V113.768H110.774V117.352H106.358ZM133.552 125.992H128.944C128.624 124.232 126.768 122.792 124.24 122.792C120.144 122.792 118.352 125.576 118.352 128.52C118.352 131.464 119.952 134.248 123.76 134.248C127.184 134.248 128.112 132.904 129.04 130.504H133.648C132.624 137.544 125.424 137.64 124.24 137.64C116.656 137.64 113.743 133.192 113.743 128.52C113.743 123.048 117.68 119.4 124.24 119.4C126.8 119.4 132.624 120.264 133.552 125.992ZM154.594 125.096V133.128C154.594 134.056 155.266 134.088 155.554 134.088C155.97 134.088 156.642 134.056 156.994 133.992V137.096C156.13 137.256 155.362 137.48 153.858 137.48C150.978 137.48 150.658 135.944 150.53 135.304C149.666 136.136 147.522 137.64 142.562 137.64C138.146 137.64 135.65 135.656 135.65 132.328C135.65 127.656 140.45 127.24 143.266 126.984C149.602 126.376 150.274 126.152 150.274 124.84C150.274 122.888 148.034 122.408 145.474 122.408C142.562 122.408 140.994 123.336 140.834 125.224H136.514C137.154 120.776 140.45 119.4 145.474 119.4C154.338 119.4 154.594 122.888 154.594 125.096ZM150.178 130.184V128.552C148.898 129.096 147.522 129.256 144.386 129.608C141.058 129.992 140.258 130.728 140.258 132.168C140.258 134.408 142.306 134.824 143.81 134.824C146.178 134.824 150.178 133.928 150.178 130.184ZM160.293 132.264V123.24H156.773V120.04H160.293V114.792H164.709V120.04H169.317V123.24H164.709V130.984C164.709 132.936 164.805 133.992 166.309 133.992C167.397 133.992 168.421 133.96 169.477 133.928V137.128C168.293 137.288 167.429 137.384 166.085 137.384C160.709 137.384 160.293 135.464 160.293 132.264ZM172.076 137V120.04H176.492V137H172.076ZM172.076 117.352V113.768H176.492V117.352H172.076ZM184.07 128.52C184.07 131.464 185.67 134.248 189.958 134.248C194.246 134.248 195.846 131.464 195.846 128.52C195.846 125.576 194.246 122.792 189.958 122.792C185.67 122.792 184.07 125.576 184.07 128.52ZM179.462 128.52C179.462 123.848 182.374 119.4 189.958 119.4C197.542 119.4 200.454 123.848 200.454 128.52C200.454 133.192 197.542 137.64 189.958 137.64C182.374 137.64 179.462 133.192 179.462 128.52ZM203.292 137V120.04H207.708V122.6H207.772C209.212 120.776 211.452 119.592 214.46 119.592C218.108 119.592 221.66 120.904 221.66 125.48V137H217.244V126.888C217.244 125.064 216.636 122.984 212.988 122.984C210.684 122.984 207.708 124.264 207.708 127.88V137H203.292Z" fill="black"/>
<path d="M34.488 179.016L31.368 167.848H32.92L35.352 177.304L38.04 167.848H39.672L42.232 177.272L44.68 167.848H46.248L43.016 179H41.384L38.792 170.024L36.104 179L34.488 179.016ZM51.5694 171.32C50.1454 171.32 48.9614 172.264 48.8014 173.976H54.3374C54.3534 172.264 53.0734 171.32 51.5694 171.32ZM55.6654 176.296C55.2174 177.896 53.8094 179.144 51.6334 179.144C49.1374 179.144 47.2974 177.384 47.2974 174.6C47.2974 171.832 49.0734 170.088 51.6334 170.088C54.1774 170.088 55.8414 171.88 55.8414 174.28C55.8414 174.6 55.8254 174.856 55.7934 175.16H48.7854C48.8974 176.936 50.1454 177.912 51.6334 177.912C52.9454 177.912 53.7774 177.24 54.0974 176.296H55.6654ZM72.6849 173.416C72.6849 176.76 70.2369 179.112 67.0849 179.112C63.9489 179.112 61.4849 176.76 61.4849 173.416C61.4849 170.072 63.9489 167.72 67.0849 167.72C70.2369 167.72 72.6849 170.072 72.6849 173.416ZM62.9729 173.416C62.9729 176.136 64.7329 177.848 67.0849 177.848C69.4369 177.848 71.1969 176.136 71.1969 173.416C71.1969 170.68 69.4369 168.984 67.0849 168.984C64.7329 168.984 62.9729 170.68 62.9729 173.416ZM74.879 179V171.432H73.743V170.232H74.879V169.608C74.879 167.656 75.839 166.776 78.079 166.776V167.992C76.767 167.992 76.335 168.472 76.335 169.608V170.232H78.175V171.432H76.335V179H74.879ZM80.1446 179V171.432H79.0086V170.232H80.1446V169.608C80.1446 167.656 81.1046 166.776 83.3446 166.776V167.992C82.0326 167.992 81.6006 168.472 81.6006 169.608V170.232H83.4406V171.432H81.6006V179H80.1446ZM88.8663 171.32C87.4423 171.32 86.2582 172.264 86.0983 173.976H91.6343C91.6503 172.264 90.3703 171.32 88.8663 171.32ZM92.9623 176.296C92.5143 177.896 91.1063 179.144 88.9303 179.144C86.4343 179.144 84.5943 177.384 84.5943 174.6C84.5943 171.832 86.3703 170.088 88.9303 170.088C91.4743 170.088 93.1383 171.88 93.1383 174.28C93.1383 174.6 93.1223 174.856 93.0903 175.16H86.0823C86.1943 176.936 87.4423 177.912 88.9303 177.912C90.2423 177.912 91.0743 177.24 91.3943 176.296H92.9623ZM96.5161 174.232V179H95.0601V170.232H96.5161V171.656C97.0121 170.68 97.9561 170.072 99.3481 170.072V171.576H98.9641C97.5721 171.576 96.5161 172.2 96.5161 174.232ZM112.783 179L111.887 176.52H107.023L106.127 179H104.59L108.623 167.912H110.303L114.319 179H112.783ZM111.471 175.336L109.455 169.704L107.439 175.336H111.471ZM119.797 173.416C119.797 170.072 122.245 167.704 125.365 167.704C127.781 167.704 129.701 168.92 130.533 171.08H128.789C128.181 169.736 126.997 168.984 125.365 168.984C123.029 168.984 121.285 170.68 121.285 173.416C121.285 176.136 123.029 177.832 125.365 177.832C126.997 177.832 128.181 177.08 128.789 175.752H130.533C129.701 177.896 127.781 179.096 125.365 179.096C122.245 179.096 119.797 176.76 119.797 173.416ZM141.021 174.6C141.021 177.384 139.021 179.144 136.525 179.144C134.045 179.144 132.157 177.384 132.157 174.6C132.157 171.832 134.109 170.088 136.589 170.088C139.085 170.088 141.021 171.832 141.021 174.6ZM133.645 174.6C133.645 176.824 135.005 177.864 136.525 177.864C138.045 177.864 139.533 176.824 139.533 174.6C139.533 172.392 138.077 171.352 136.573 171.352C135.037 171.352 133.645 172.392 133.645 174.6ZM155.591 179V174.04C155.591 172.248 154.631 171.336 153.191 171.336C151.719 171.336 150.711 172.28 150.711 174.168V179H149.271V174.04C149.271 172.248 148.311 171.336 146.871 171.336C145.399 171.336 144.391 172.28 144.391 174.168V179H142.935V170.232H144.391V171.496C144.967 170.568 146.007 170.072 147.159 170.072C148.599 170.072 149.799 170.712 150.375 172.024C150.887 170.76 152.135 170.072 153.479 170.072C155.479 170.072 157.031 171.32 157.031 173.832V179H155.591ZM160.876 171.848C161.404 170.92 162.556 170.088 164.156 170.088C166.508 170.088 168.316 171.848 168.316 174.584C168.316 177.304 166.508 179.144 164.156 179.144C162.556 179.144 161.42 178.28 160.876 177.384V183.16H159.42V170.232H160.876V171.848ZM166.828 174.584C166.828 172.52 165.468 171.352 163.852 171.352C162.268 171.352 160.876 172.568 160.876 174.6C160.876 176.664 162.268 177.864 163.852 177.864C165.468 177.864 166.828 176.648 166.828 174.584ZM171.688 174.232V179H170.232V170.232H171.688V171.656C172.184 170.68 173.128 170.072 174.52 170.072V171.576H174.136C172.744 171.576 171.688 172.2 171.688 174.232ZM179.929 171.32C178.505 171.32 177.321 172.264 177.161 173.976H182.697C182.713 172.264 181.433 171.32 179.929 171.32ZM184.025 176.296C183.577 177.896 182.169 179.144 179.993 179.144C177.497 179.144 175.657 177.384 175.657 174.6C175.657 171.832 177.433 170.088 179.993 170.088C182.537 170.088 184.201 171.88 184.201 174.28C184.201 174.6 184.185 174.856 184.153 175.16H177.145C177.257 176.936 178.505 177.912 179.993 177.912C181.305 177.912 182.137 177.24 182.457 176.296H184.025ZM186.123 179V167.16H187.579V171.496C188.155 170.568 189.243 170.072 190.475 170.072C192.427 170.072 193.979 171.32 193.979 173.832V179H192.539V174.04C192.539 172.248 191.563 171.336 190.091 171.336C188.603 171.336 187.579 172.264 187.579 174.152V179H186.123ZM200.085 171.32C198.661 171.32 197.477 172.264 197.317 173.976H202.853C202.869 172.264 201.589 171.32 200.085 171.32ZM204.181 176.296C203.733 177.896 202.325 179.144 200.149 179.144C197.653 179.144 195.813 177.384 195.813 174.6C195.813 171.832 197.589 170.088 200.149 170.088C202.693 170.088 204.357 171.88 204.357 174.28C204.357 174.6 204.341 174.856 204.309 175.16H197.301C197.413 176.936 198.661 177.912 200.149 177.912C201.461 177.912 202.293 177.24 202.613 176.296H204.181ZM212.695 179V174.04C212.695 172.248 211.719 171.336 210.247 171.336C208.759 171.336 207.735 172.264 207.735 174.152V179H206.279V170.232H207.735V171.48C208.311 170.568 209.367 170.072 210.551 170.072C212.583 170.072 214.135 171.32 214.135 173.832V179H212.695ZM222.817 176.616C222.817 178.056 221.553 179.144 219.617 179.144C217.569 179.144 216.129 178.024 216.033 176.424H217.537C217.617 177.272 218.369 177.912 219.601 177.912C220.753 177.912 221.393 177.336 221.393 176.616C221.393 174.664 216.209 175.8 216.209 172.536C216.209 171.192 217.473 170.088 219.425 170.088C221.361 170.088 222.641 171.128 222.737 172.84H221.281C221.217 171.96 220.545 171.32 219.377 171.32C218.305 171.32 217.665 171.832 217.665 172.536C217.665 174.616 222.753 173.48 222.817 176.616ZM224.873 179V170.232H226.329V179H224.873ZM225.625 168.808C225.065 168.808 224.633 168.376 224.633 167.816C224.633 167.256 225.065 166.824 225.625 166.824C226.153 166.824 226.585 167.256 226.585 167.816C226.585 168.376 226.153 168.808 225.625 168.808ZM227.77 170.232H229.338L232.074 177.656L234.794 170.232H236.346L232.906 179H231.21L227.77 170.232ZM241.507 171.32C240.083 171.32 238.899 172.264 238.739 173.976H244.275C244.291 172.264 243.011 171.32 241.507 171.32ZM245.603 176.296C245.155 177.896 243.747 179.144 241.571 179.144C239.075 179.144 237.235 177.384 237.235 174.6C237.235 171.832 239.011 170.088 241.571 170.088C244.115 170.088 245.779 171.88 245.779 174.28C245.779 174.6 245.763 174.856 245.731 175.16H238.723C238.835 176.936 240.083 177.912 241.571 177.912C242.883 177.912 243.715 177.24 244.035 176.296H245.603ZM257.934 171.128C257.934 169.864 257.23 169.048 255.566 169.048H253.422V173.272H255.566C257.214 173.272 257.934 172.376 257.934 171.128ZM251.966 167.848H255.566C258.19 167.848 259.438 169.304 259.438 171.128C259.438 172.552 258.654 173.912 256.782 174.328L259.582 179H257.838L255.182 174.44H253.422V179H251.966V167.848ZM261.157 174.584C261.157 171.848 262.965 170.088 265.317 170.088C266.949 170.088 268.069 170.92 268.581 171.832V170.232H270.053V179H268.581V177.368C268.053 178.312 266.917 179.144 265.301 179.144C262.965 179.144 261.157 177.304 261.157 174.584ZM268.581 174.6C268.581 172.568 267.205 171.352 265.605 171.352C264.005 171.352 262.645 172.52 262.645 174.584C262.645 176.648 264.005 177.864 265.605 177.864C267.205 177.864 268.581 176.664 268.581 174.6ZM278.929 179V174.04C278.929 172.248 277.953 171.336 276.481 171.336C274.993 171.336 273.969 172.264 273.969 174.152V179H272.513V170.232H273.969V171.48C274.545 170.568 275.601 170.072 276.785 170.072C278.817 170.072 280.369 171.32 280.369 173.832V179H278.929ZM282.204 174.584C282.204 171.848 284.012 170.088 286.364 170.088C287.964 170.088 289.116 170.888 289.628 171.832V170.232H291.1V179.192C291.1 181.608 289.484 183.32 286.908 183.32C284.604 183.32 282.956 182.152 282.668 180.28H284.108C284.428 181.336 285.468 182.056 286.908 182.056C288.46 182.056 289.628 181.064 289.628 179.192V177.352C289.1 178.296 287.964 179.144 286.364 179.144C284.012 179.144 282.204 177.304 282.204 174.584ZM289.628 174.6C289.628 172.568 288.252 171.352 286.652 171.352C285.052 171.352 283.692 172.52 283.692 174.584C283.692 176.648 285.052 177.864 286.652 177.864C288.252 177.864 289.628 176.664 289.628 174.6ZM297.288 171.32C295.864 171.32 294.68 172.264 294.52 173.976H300.056C300.072 172.264 298.792 171.32 297.288 171.32ZM301.384 176.296C300.936 177.896 299.528 179.144 297.352 179.144C294.856 179.144 293.016 177.384 293.016 174.6C293.016 171.832 294.792 170.088 297.352 170.088C299.896 170.088 301.56 171.88 301.56 174.28C301.56 174.6 301.544 174.856 301.512 175.16H294.504C294.616 176.936 295.864 177.912 297.352 177.912C298.664 177.912 299.496 177.24 299.816 176.296H301.384ZM318.404 173.416C318.404 176.76 315.956 179.112 312.804 179.112C309.668 179.112 307.204 176.76 307.204 173.416C307.204 170.072 309.668 167.72 312.804 167.72C315.956 167.72 318.404 170.072 318.404 173.416ZM308.692 173.416C308.692 176.136 310.452 177.848 312.804 177.848C315.156 177.848 316.916 176.136 316.916 173.416C316.916 170.68 315.156 168.984 312.804 168.984C310.452 168.984 308.692 170.68 308.692 173.416ZM320.598 179V171.432H319.462V170.232H320.598V169.608C320.598 167.656 321.558 166.776 323.798 166.776V167.992C322.486 167.992 322.054 168.472 322.054 169.608V170.232H323.894V171.432H322.054V179H320.598ZM32.232 203V191.848H33.688V203H32.232ZM42.5855 203V198.04C42.5855 196.248 41.6095 195.336 40.1375 195.336C38.6495 195.336 37.6255 196.264 37.6255 198.152V203H36.1695V194.232H37.6255V195.48C38.2015 194.568 39.2575 194.072 40.4415 194.072C42.4735 194.072 44.0255 195.32 44.0255 197.832V203H42.5855ZM52.8199 203V198.04C52.8199 196.248 51.8439 195.336 50.3719 195.336C48.8839 195.336 47.8599 196.264 47.8599 198.152V203H46.4039V194.232H47.8599V195.48C48.4359 194.568 49.4919 194.072 50.6759 194.072C52.7079 194.072 54.2599 195.32 54.2599 197.832V203H52.8199ZM64.9583 198.6C64.9583 201.384 62.9583 203.144 60.4623 203.144C57.9823 203.144 56.0943 201.384 56.0943 198.6C56.0943 195.832 58.0463 194.088 60.5263 194.088C63.0223 194.088 64.9583 195.832 64.9583 198.6ZM57.5823 198.6C57.5823 200.824 58.9423 201.864 60.4623 201.864C61.9823 201.864 63.4703 200.824 63.4703 198.6C63.4703 196.392 62.0143 195.352 60.5103 195.352C58.9743 195.352 57.5823 196.392 57.5823 198.6ZM65.8326 194.232H67.4006L70.1366 201.656L72.8566 194.232H74.4086L70.9686 203H69.2726L65.8326 194.232ZM75.2974 198.584C75.2974 195.848 77.1054 194.088 79.4574 194.088C81.0894 194.088 82.2094 194.92 82.7214 195.832V194.232H84.1934V203H82.7214V201.368C82.1934 202.312 81.0574 203.144 79.4414 203.144C77.1054 203.144 75.2974 201.304 75.2974 198.584ZM82.7214 198.6C82.7214 196.568 81.3454 195.352 79.7454 195.352C78.1454 195.352 76.7854 196.52 76.7854 198.584C76.7854 200.648 78.1454 201.864 79.7454 201.864C81.3454 201.864 82.7214 200.664 82.7214 198.6ZM86.9739 200.6V195.432H85.8379V194.232H86.9739V192.024H88.4299V194.232H90.7179V195.432H88.4299V200.6C88.4299 201.464 88.7499 201.768 89.6459 201.768H90.7179V203H89.4059C87.8539 203 86.9739 202.36 86.9739 200.6ZM92.482 203V194.232H93.938V203H92.482ZM93.234 192.808C92.674 192.808 92.242 192.376 92.242 191.816C92.242 191.256 92.674 190.824 93.234 190.824C93.762 190.824 94.194 191.256 94.194 191.816C94.194 192.376 93.762 192.808 93.234 192.808ZM95.3795 194.232H96.9475L99.6835 201.656L102.404 194.232H103.956L100.516 203H98.8195L95.3795 194.232ZM109.116 195.32C107.692 195.32 106.508 196.264 106.348 197.976H111.884C111.9 196.264 110.62 195.32 109.116 195.32ZM113.212 200.296C112.764 201.896 111.356 203.144 109.18 203.144C106.684 203.144 104.844 201.384 104.844 198.6C104.844 195.832 106.62 194.088 109.18 194.088C111.724 194.088 113.388 195.88 113.388 198.28C113.388 198.6 113.372 198.856 113.34 199.16H106.332C106.444 200.936 107.692 201.912 109.18 201.912C110.492 201.912 111.324 201.24 111.644 200.296H113.212ZM119.576 203V191.848H125.88V193.032H121.032V196.792H124.968V197.976H121.032V203H119.576ZM127.638 203V194.232H129.094V203H127.638ZM128.39 192.808C127.83 192.808 127.398 192.376 127.398 191.816C127.398 191.256 127.83 190.824 128.39 190.824C128.918 190.824 129.35 191.256 129.35 191.816C129.35 192.376 128.918 192.808 128.39 192.808ZM137.992 203V198.04C137.992 196.248 137.016 195.336 135.544 195.336C134.056 195.336 133.032 196.264 133.032 198.152V203H131.576V194.232H133.032V195.48C133.608 194.568 134.664 194.072 135.848 194.072C137.88 194.072 139.432 195.32 139.432 197.832V203H137.992ZM141.266 198.584C141.266 195.848 143.074 194.088 145.426 194.088C147.058 194.088 148.178 194.92 148.69 195.832V194.232H150.162V203H148.69V201.368C148.162 202.312 147.026 203.144 145.41 203.144C143.074 203.144 141.266 201.304 141.266 198.584ZM148.69 198.6C148.69 196.568 147.314 195.352 145.714 195.352C144.114 195.352 142.754 196.52 142.754 198.584C142.754 200.648 144.114 201.864 145.714 201.864C147.314 201.864 148.69 200.664 148.69 198.6ZM159.039 203V198.04C159.039 196.248 158.063 195.336 156.591 195.336C155.103 195.336 154.079 196.264 154.079 198.152V203H152.623V194.232H154.079V195.48C154.655 194.568 155.711 194.072 156.895 194.072C158.927 194.072 160.479 195.32 160.479 197.832V203H159.039ZM162.313 198.6C162.313 195.848 164.089 194.088 166.585 194.088C168.761 194.088 170.185 195.208 170.633 197.048H169.065C168.761 195.992 167.881 195.32 166.585 195.32C164.985 195.32 163.801 196.456 163.801 198.6C163.801 200.776 164.985 201.912 166.585 201.912C167.881 201.912 168.745 201.288 169.065 200.184H170.633C170.185 201.928 168.761 203.144 166.585 203.144C164.089 203.144 162.313 201.384 162.313 198.6ZM172.576 203V194.232H174.032V203H172.576ZM173.328 192.808C172.768 192.808 172.336 192.376 172.336 191.816C172.336 191.256 172.768 190.824 173.328 190.824C173.856 190.824 174.288 191.256 174.288 191.816C174.288 192.376 173.856 192.808 173.328 192.808ZM175.969 198.584C175.969 195.848 177.777 194.088 180.129 194.088C181.761 194.088 182.881 194.92 183.393 195.832V194.232H184.865V203H183.393V201.368C182.865 202.312 181.729 203.144 180.113 203.144C177.777 203.144 175.969 201.304 175.969 198.584ZM183.393 198.6C183.393 196.568 182.017 195.352 180.417 195.352C178.817 195.352 177.457 196.52 177.457 198.584C177.457 200.648 178.817 201.864 180.417 201.864C182.017 201.864 183.393 200.664 183.393 198.6ZM187.326 203V191.16H188.782V203H187.326ZM202.777 199.96C202.777 201.544 201.481 203.112 199.065 203.112C196.825 203.112 195.241 201.864 195.209 200.024H196.761C196.857 200.952 197.513 201.88 199.065 201.88C200.473 201.88 201.305 201.08 201.305 200.024C201.305 197.016 195.273 198.936 195.273 194.792C195.273 192.952 196.761 191.704 198.969 191.704C201.097 191.704 202.489 192.872 202.665 194.568H201.065C200.969 193.816 200.265 192.968 198.905 192.952C197.705 192.92 196.761 193.544 196.761 194.744C196.761 197.624 202.777 195.832 202.777 199.96ZM208.648 195.32C207.224 195.32 206.039 196.264 205.88 197.976H211.416C211.432 196.264 210.152 195.32 208.648 195.32ZM212.744 200.296C212.296 201.896 210.888 203.144 208.712 203.144C206.216 203.144 204.376 201.384 204.376 198.6C204.376 195.832 206.152 194.088 208.712 194.088C211.256 194.088 212.92 195.88 212.92 198.28C212.92 198.6 212.904 198.856 212.872 199.16H205.864C205.976 200.936 207.224 201.912 208.712 201.912C210.024 201.912 210.856 201.24 211.176 200.296H212.744ZM216.297 198.232V203H214.841V194.232H216.297V195.656C216.793 194.68 217.737 194.072 219.129 194.072V195.576H218.745C217.353 195.576 216.297 196.2 216.297 198.232ZM219.77 194.232H221.338L224.074 201.656L226.794 194.232H228.346L224.906 203H223.21L219.77 194.232ZM229.779 203V194.232H231.235V203H229.779ZM230.531 192.808C229.971 192.808 229.539 192.376 229.539 191.816C229.539 191.256 229.971 190.824 230.531 190.824C231.059 190.824 231.491 191.256 231.491 191.816C231.491 192.376 231.059 192.808 230.531 192.808ZM233.172 198.6C233.172 195.848 234.948 194.088 237.444 194.088C239.62 194.088 241.044 195.208 241.492 197.048H239.924C239.62 195.992 238.74 195.32 237.444 195.32C235.844 195.32 234.66 196.456 234.66 198.6C234.66 200.776 235.844 201.912 237.444 201.912C238.74 201.912 239.604 201.288 239.924 200.184H241.492C241.044 201.928 239.62 203.144 237.444 203.144C234.948 203.144 233.172 201.384 233.172 198.6ZM247.163 195.32C245.739 195.32 244.555 196.264 244.395 197.976H249.931C249.947 196.264 248.667 195.32 247.163 195.32ZM251.259 200.296C250.811 201.896 249.403 203.144 247.227 203.144C244.731 203.144 242.891 201.384 242.891 198.6C242.891 195.832 244.667 194.088 247.227 194.088C249.771 194.088 251.435 195.88 251.435 198.28C251.435 198.6 251.419 198.856 251.387 199.16H244.379C244.491 200.936 245.739 201.912 247.227 201.912C248.539 201.912 249.371 201.24 249.691 200.296H251.259ZM259.661 200.616C259.661 202.056 258.397 203.144 256.461 203.144C254.413 203.144 252.973 202.024 252.877 200.424H254.381C254.461 201.272 255.213 201.912 256.445 201.912C257.597 201.912 258.237 201.336 258.237 200.616C258.237 198.664 253.053 199.8 253.053 196.536C253.053 195.192 254.317 194.088 256.269 194.088C258.205 194.088 259.485 195.128 259.581 196.84H258.125C258.061 195.96 257.389 195.32 256.221 195.32C255.149 195.32 254.509 195.832 254.509 196.536C254.509 198.616 259.597 197.48 259.661 200.616ZM265.294 193.032V191.848H272.846V193.032H269.806V203H268.35V193.032H265.294ZM274.094 198.584C274.094 195.848 275.902 194.088 278.254 194.088C279.886 194.088 281.006 194.92 281.518 195.832V194.232H282.99V203H281.518V201.368C280.99 202.312 279.854 203.144 278.238 203.144C275.902 203.144 274.094 201.304 274.094 198.584ZM281.518 198.6C281.518 196.568 280.142 195.352 278.542 195.352C276.942 195.352 275.582 196.52 275.582 198.584C275.582 200.648 276.942 201.864 278.542 201.864C280.142 201.864 281.518 200.664 281.518 198.6ZM285.451 203V194.232H286.907V203H285.451ZM286.203 192.808C285.643 192.808 285.211 192.376 285.211 191.816C285.211 191.256 285.643 190.824 286.203 190.824C286.731 190.824 287.163 191.256 287.163 191.816C287.163 192.376 286.731 192.808 286.203 192.808ZM289.388 203V191.16H290.844V203H289.388ZM301.646 198.6C301.646 201.384 299.646 203.144 297.15 203.144C294.67 203.144 292.782 201.384 292.782 198.6C292.782 195.832 294.734 194.088 297.214 194.088C299.71 194.088 301.646 195.832 301.646 198.6ZM294.27 198.6C294.27 200.824 295.63 201.864 297.15 201.864C298.67 201.864 300.158 200.824 300.158 198.6C300.158 196.392 298.702 195.352 297.198 195.352C295.662 195.352 294.27 196.392 294.27 198.6ZM305.016 198.232V203H303.56V194.232H305.016V195.656C305.512 194.68 306.456 194.072 307.848 194.072V195.576H307.464C306.072 195.576 305.016 196.2 305.016 198.232ZM313.257 195.32C311.833 195.32 310.649 196.264 310.489 197.976H316.025C316.041 196.264 314.761 195.32 313.257 195.32ZM317.353 200.296C316.905 201.896 315.497 203.144 313.321 203.144C310.825 203.144 308.985 201.384 308.985 198.6C308.985 195.832 310.761 194.088 313.321 194.088C315.865 194.088 317.529 195.88 317.529 198.28C317.529 198.6 317.513 198.856 317.481 199.16H310.473C310.585 200.936 311.833 201.912 313.321 201.912C314.633 201.912 315.465 201.24 315.785 200.296H317.353ZM318.907 198.584C318.907 195.848 320.715 194.088 323.083 194.088C324.459 194.088 325.723 194.792 326.331 195.8V191.16H327.803V203H326.331V201.352C325.803 202.328 324.667 203.144 323.067 203.144C320.715 203.144 318.907 201.304 318.907 198.584ZM326.331 198.6C326.331 196.568 324.955 195.352 323.355 195.352C321.755 195.352 320.395 196.52 320.395 198.584C320.395 200.648 321.755 201.864 323.355 201.864C324.955 201.864 326.331 200.664 326.331 198.6ZM31.544 217.032V215.848H39.096V217.032H36.056V227H34.6V217.032H31.544ZM49.2083 222.6C49.2083 225.384 47.2083 227.144 44.7123 227.144C42.2323 227.144 40.3443 225.384 40.3443 222.6C40.3443 219.832 42.2963 218.088 44.7763 218.088C47.2723 218.088 49.2083 219.832 49.2083 222.6ZM41.8323 222.6C41.8323 224.824 43.1923 225.864 44.7123 225.864C46.2323 225.864 47.7203 224.824 47.7203 222.6C47.7203 220.392 46.2643 219.352 44.7603 219.352C43.2243 219.352 41.8323 220.392 41.8323 222.6ZM55.3883 227V215.928H56.9563L61.0523 225.08L65.1483 215.928H66.7003V227H65.2443V218.744L61.5643 227H60.5403L56.8443 218.728V227H55.3883ZM72.8975 219.32C71.4735 219.32 70.2895 220.264 70.1295 221.976H75.6655C75.6815 220.264 74.4015 219.32 72.8975 219.32ZM76.9935 224.296C76.5455 225.896 75.1375 227.144 72.9615 227.144C70.4655 227.144 68.6255 225.384 68.6255 222.6C68.6255 219.832 70.4015 218.088 72.9615 218.088C75.5055 218.088 77.1695 219.88 77.1695 222.28C77.1695 222.6 77.1535 222.856 77.1215 223.16H70.1135C70.2255 224.936 71.4735 225.912 72.9615 225.912C74.2735 225.912 75.1055 225.24 75.4255 224.296H76.9935ZM82.8194 219.32C81.3954 219.32 80.2114 220.264 80.0514 221.976H85.5874C85.6034 220.264 84.3234 219.32 82.8194 219.32ZM86.9154 224.296C86.4674 225.896 85.0594 227.144 82.8834 227.144C80.3874 227.144 78.5474 225.384 78.5474 222.6C78.5474 219.832 80.3234 218.088 82.8834 218.088C85.4274 218.088 87.0914 219.88 87.0914 222.28C87.0914 222.6 87.0754 222.856 87.0434 223.16H80.0354C80.1474 224.936 81.3954 225.912 82.8834 225.912C84.1954 225.912 85.0274 225.24 85.3474 224.296H86.9154ZM89.3333 224.6V219.432H88.1973V218.232H89.3333V216.024H90.7893V218.232H93.0773V219.432H90.7893V224.6C90.7893 225.464 91.1093 225.768 92.0052 225.768H93.0773V227H91.7653C90.2133 227 89.3333 226.36 89.3333 224.6ZM101.827 222.792L98.179 215.848H99.795L102.547 221.496L105.299 215.848H106.915L103.283 222.792V227H101.827V222.792ZM116.771 222.6C116.771 225.384 114.771 227.144 112.275 227.144C109.795 227.144 107.907 225.384 107.907 222.6C107.907 219.832 109.859 218.088 112.339 218.088C114.835 218.088 116.771 219.832 116.771 222.6ZM109.395 222.6C109.395 224.824 110.755 225.864 112.275 225.864C113.795 225.864 115.283 224.824 115.283 222.6C115.283 220.392 113.827 219.352 112.323 219.352C110.787 219.352 109.395 220.392 109.395 222.6ZM126.461 218.232V227H125.005V225.704C124.445 226.616 123.373 227.128 122.205 227.128C120.189 227.128 118.605 225.88 118.605 223.368V218.232H120.045V223.176C120.045 224.952 121.021 225.864 122.493 225.864C123.997 225.864 125.005 224.936 125.005 223.048V218.232H126.461ZM130.376 222.232V227H128.92V218.232H130.376V219.656C130.872 218.68 131.816 218.072 133.208 218.072V219.576H132.824C131.432 219.576 130.376 220.2 130.376 222.232ZM146.466 215.832H147.922V227H146.466L140.61 218.12V227H139.154V215.832H140.61L146.466 224.696V215.832ZM154.132 219.32C152.708 219.32 151.524 220.264 151.364 221.976H156.9C156.916 220.264 155.636 219.32 154.132 219.32ZM158.228 224.296C157.78 225.896 156.372 227.144 154.196 227.144C151.7 227.144 149.86 225.384 149.86 222.6C149.86 219.832 151.636 218.088 154.196 218.088C156.74 218.088 158.404 219.88 158.404 222.28C158.404 222.6 158.388 222.856 158.356 223.16H151.348C151.46 224.936 152.708 225.912 154.196 225.912C155.508 225.912 156.34 225.24 156.66 224.296H158.228ZM164.054 219.32C162.63 219.32 161.446 220.264 161.286 221.976H166.822C166.838 220.264 165.558 219.32 164.054 219.32ZM168.15 224.296C167.702 225.896 166.294 227.144 164.118 227.144C161.622 227.144 159.782 225.384 159.782 222.6C159.782 219.832 161.558 218.088 164.118 218.088C166.662 218.088 168.326 219.88 168.326 222.28C168.326 222.6 168.31 222.856 168.278 223.16H161.27C161.382 224.936 162.63 225.912 164.118 225.912C165.43 225.912 166.262 225.24 166.582 224.296H168.15ZM169.704 222.584C169.704 219.848 171.512 218.088 173.88 218.088C175.256 218.088 176.52 218.792 177.128 219.8V215.16H178.6V227H177.128V225.352C176.6 226.328 175.464 227.144 173.864 227.144C171.512 227.144 169.704 225.304 169.704 222.584ZM177.128 222.6C177.128 220.568 175.752 219.352 174.152 219.352C172.552 219.352 171.192 220.52 171.192 222.584C171.192 224.648 172.552 225.864 174.152 225.864C175.752 225.864 177.128 224.664 177.128 222.6ZM187.364 224.616C187.364 226.056 186.1 227.144 184.164 227.144C182.116 227.144 180.676 226.024 180.58 224.424H182.084C182.164 225.272 182.916 225.912 184.148 225.912C185.3 225.912 185.94 225.336 185.94 224.616C185.94 222.664 180.756 223.8 180.756 220.536C180.756 219.192 182.02 218.088 183.972 218.088C185.908 218.088 187.188 219.128 187.284 220.84H185.828C185.764 219.96 185.092 219.32 183.924 219.32C182.852 219.32 182.212 219.832 182.212 220.536C182.212 222.616 187.3 221.48 187.364 224.616ZM190.844 226.104C190.844 226.664 190.412 227.096 189.884 227.096C189.324 227.096 188.892 226.664 188.892 226.104C188.892 225.544 189.324 225.112 189.884 225.112C190.412 225.112 190.844 225.544 190.844 226.104Z" fill="#403F3F"/>
</svg>
