<svg width="340" height="298" viewBox="0 0 340 298" fill="none" xmlns="http://www.w3.org/2000/svg">
<rect width="340" height="298" rx="20" fill="#2D907A"/>
<path d="M115.883 142L105.707 119.152H111.083L118.539 137.456L125.835 119.152H131.019L120.971 142H115.883ZM132.42 142V125.04H136.836V142H132.42ZM132.42 122.352V118.768H136.836V122.352H132.42ZM139.678 136.688H144.478C144.606 139.248 147.55 139.632 149.15 139.632C151.358 139.632 153.758 139.056 153.758 137.456C153.758 136.144 153.022 135.696 148.254 135.056C143.006 134.352 140.254 133.744 140.254 129.872C140.254 125.04 145.886 124.4 148.734 124.4C151.358 124.4 157.662 124.784 157.918 130.224H153.31C152.958 127.696 150.014 127.408 148.51 127.408C146.014 127.408 144.67 128.464 144.67 129.36C144.67 130.736 145.086 130.96 149.342 131.568C154.91 132.368 158.558 132.912 158.558 136.848C158.558 141.168 154.43 142.64 149.182 142.64C145.566 142.64 139.838 141.872 139.678 136.688ZM161.42 142V125.04H165.836V142H161.42ZM161.42 122.352V118.768H165.836V122.352H161.42ZM170.918 137.264V128.24H167.398V125.04H170.918V119.792H175.334V125.04H179.942V128.24H175.334V135.984C175.334 137.936 175.43 138.992 176.934 138.992C178.022 138.992 179.046 138.96 180.102 138.928V142.128C178.918 142.288 178.054 142.384 176.71 142.384C171.334 142.384 170.918 140.464 170.918 137.264ZM206.527 142.64C196.863 142.64 193.087 137.008 193.087 130.576C193.087 124.144 196.863 118.512 206.527 118.512C216.191 118.512 219.967 124.144 219.967 130.576C219.967 137.008 216.191 142.64 206.527 142.64ZM206.527 139.056C211.903 139.056 214.975 135.6 214.975 130.576C214.975 125.552 211.903 122.096 206.527 122.096C201.151 122.096 198.079 125.552 198.079 130.576C198.079 135.6 201.151 139.056 206.527 139.056ZM222.823 136.368V125.04H227.239V134.704C227.239 137.296 227.847 139.248 231.623 139.248C233.575 139.248 236.775 137.968 236.775 134.352V125.04H241.191V142H236.775V139.632H236.711C235.271 141.456 233.031 142.64 230.023 142.64C226.375 142.64 222.823 141.328 222.823 136.368ZM244.761 142V125.04H249.177V128.336H249.241C250.425 126.416 252.249 124.592 255.641 124.592C256.313 124.592 256.825 124.656 257.401 124.752V129.104C256.185 128.72 255.353 128.688 254.585 128.688C252.345 128.688 249.177 129.872 249.177 133.808V142H244.761ZM52.4794 163.584C52.4794 158.496 56.9914 156.512 62.5594 156.512C66.0794 156.512 73.1194 157.152 73.7274 163.776H68.5434C68.3834 162.016 66.7834 160.096 62.7834 160.096C59.5834 160.096 57.4714 161.088 57.4714 163.232C57.4714 168.608 74.4954 163.456 74.4954 173.216C74.4954 179.104 68.3834 180.64 63.5194 180.64C55.2954 180.64 51.9994 177.408 51.9354 172.608H57.1194C57.2474 175.616 59.7434 177.056 63.6794 177.056C66.5914 177.056 69.3114 176.192 69.3114 173.696C69.3114 168.032 52.4794 172.96 52.4794 163.584ZM96.9341 172.64H80.9341C81.0301 174.528 82.3101 177.44 86.6941 177.44C89.6061 177.44 90.8861 176.416 91.7501 175.008H96.5501C95.5901 176.896 93.2861 180.64 86.8221 180.64C79.1741 180.64 76.3261 176.192 76.3261 171.68C76.3261 166.016 80.5181 162.4 86.5341 162.4C94.0541 162.4 96.9341 167.04 96.9341 172V172.64ZM80.9341 169.824H92.3261C91.7821 166.432 88.7741 165.408 86.5981 165.408C84.5501 165.408 81.6701 166.368 80.9341 169.824ZM99.9639 180V163.04H104.38V166.336H104.444C105.628 164.416 107.452 162.592 110.844 162.592C111.516 162.592 112.028 162.656 112.604 162.752V167.104C111.388 166.72 110.556 166.688 109.788 166.688C107.548 166.688 104.38 167.872 104.38 171.808V180H99.9639ZM120.696 180L112.952 163.04H117.944L123 175.648L128.248 163.04H133.24L125.496 180H120.696ZM135.061 180V163.04H139.477V180H135.061ZM135.061 160.352V156.768H139.477V160.352H135.061ZM162.255 168.992H157.647C157.327 167.232 155.471 165.792 152.943 165.792C148.847 165.792 147.055 168.576 147.055 171.52C147.055 174.464 148.655 177.248 152.463 177.248C155.887 177.248 156.815 175.904 157.743 173.504H162.351C161.327 180.544 154.127 180.64 152.943 180.64C145.359 180.64 142.447 176.192 142.447 171.52C142.447 166.048 146.383 162.4 152.943 162.4C155.503 162.4 161.327 163.264 162.255 168.992ZM185.153 172.64H169.153C169.249 174.528 170.529 177.44 174.913 177.44C177.825 177.44 179.105 176.416 179.969 175.008H184.769C183.809 176.896 181.505 180.64 175.041 180.64C167.393 180.64 164.545 176.192 164.545 171.68C164.545 166.016 168.737 162.4 174.753 162.4C182.273 162.4 185.153 167.04 185.153 172V172.64ZM169.153 169.824H180.545C180.001 166.432 176.993 165.408 174.817 165.408C172.769 165.408 169.889 166.368 169.153 169.824ZM187.319 174.688H192.119C192.247 177.248 195.191 177.632 196.791 177.632C198.999 177.632 201.399 177.056 201.399 175.456C201.399 174.144 200.663 173.696 195.895 173.056C190.647 172.352 187.895 171.744 187.895 167.872C187.895 163.04 193.527 162.4 196.375 162.4C198.999 162.4 205.303 162.784 205.559 168.224H200.951C200.599 165.696 197.655 165.408 196.151 165.408C193.655 165.408 192.311 166.464 192.311 167.36C192.311 168.736 192.727 168.96 196.983 169.568C202.551 170.368 206.199 170.912 206.199 174.848C206.199 179.168 202.071 180.64 196.823 180.64C193.207 180.64 187.479 179.872 187.319 174.688ZM225.527 160.736V167.712H233.239C235.959 167.712 237.431 166.976 237.431 164.256C237.431 161.44 235.447 160.736 233.591 160.736H225.527ZM220.727 180V157.152H234.807C240.407 157.152 242.231 160.576 242.231 164.256C242.231 167.744 240.023 171.296 234.871 171.296H225.527V180H220.727ZM263.297 168.096V176.128C263.297 177.056 263.969 177.088 264.257 177.088C264.673 177.088 265.345 177.056 265.697 176.992V180.096C264.833 180.256 264.065 180.48 262.561 180.48C259.681 180.48 259.361 178.944 259.233 178.304C258.369 179.136 256.225 180.64 251.265 180.64C246.849 180.64 244.353 178.656 244.353 175.328C244.353 170.656 249.153 170.24 251.969 169.984C258.305 169.376 258.977 169.152 258.977 167.84C258.977 165.888 256.737 165.408 254.177 165.408C251.265 165.408 249.697 166.336 249.537 168.224H245.217C245.857 163.776 249.153 162.4 254.177 162.4C263.041 162.4 263.297 165.888 263.297 168.096ZM258.881 173.184V171.552C257.601 172.096 256.225 172.256 253.089 172.608C249.761 172.992 248.961 173.728 248.961 175.168C248.961 177.408 251.009 177.824 252.513 177.824C254.881 177.824 258.881 176.928 258.881 173.184ZM271.364 171.168C271.364 173.664 272.868 176.416 277.508 176.416C280.868 176.416 283.204 174.24 283.204 171.104C283.204 167.04 279.396 165.984 277.124 165.984C273.828 165.984 271.364 168.128 271.364 171.168ZM283.204 162.976H287.62V179.424C287.62 183.456 285.028 187.04 277.54 187.04C272.292 187.04 267.972 185.888 267.588 181.504H272.196C272.644 183.68 274.724 184.032 277.412 184.032C282.468 184.032 283.204 181.344 283.204 179.136V177.088H283.108C280.996 179.104 278.788 179.808 276.196 179.808C271.716 179.808 266.756 177.536 266.756 171.232C266.756 166.88 269.636 162.592 276.164 162.592C279.588 162.592 282.116 163.68 283.14 165.472H283.204V162.976ZM311.403 172.64H295.403C295.499 174.528 296.779 177.44 301.163 177.44C304.075 177.44 305.355 176.416 306.219 175.008H311.019C310.059 176.896 307.755 180.64 301.291 180.64C293.643 180.64 290.795 176.192 290.795 171.68C290.795 166.016 294.987 162.4 301.003 162.4C308.523 162.4 311.403 167.04 311.403 172V172.64ZM295.403 169.824H306.795C306.251 166.432 303.243 165.408 301.067 165.408C299.019 165.408 296.139 166.368 295.403 169.824Z" fill="white"/>
</svg>
